<svg xmlns="http://www.w3.org/2000/svg" width="1200" height="750" viewBox="0 0 1200 750">
  <defs>
    <style>
      text { font-family: -apple-system, BlinkMacSystemFont, 'Segoe UI', sans-serif; }
      .sidebar-bg { fill: #f8fafc; }
      .main-bg { fill: #ffffff; }
      .blue-btn { fill: #2563eb; }
      .blue-text { fill: #2563eb; }
      .gray-text { fill: #6b7280; }
      .dark-text { fill: #111827; }
      .green-badge { fill: #dcfce7; }
      .green-text { fill: #16a34a; }
      .tag-bg { fill: #f1f5f9; }
      .border { stroke: #e5e7eb; fill: none; }
    </style>
  </defs>
  
  <!-- Background -->
  <rect width="1200" height="750" fill="#f9fafb"/>
  
  <!-- Sidebar -->
  <rect x="0" y="0" width="220" height="750" class="sidebar-bg"/>
  <rect x="220" y="0" width="1" height="750" stroke="#e5e7eb" fill="#e5e7eb"/>
  
  <!-- Logo -->
  <circle cx="42" cy="32" r="16" fill="#2563eb"/>
  <text x="44" y="37" fill="white" font-size="14" font-weight="bold" text-anchor="middle">P</text>
  <text x="68" y="37" fill="#111827" font-size="15" font-weight="bold">ProxyManager</text>
  
  <!-- Sidebar menu items -->
  <text x="55" y="85" class="gray-text" font-size="13">馃彔 涓婚〉</text>
  <text x="55" y="115" class="gray-text" font-size="13">馃搳 浠〃鐩?/text>
  <text x="55" y="145" class="gray-text" font-size="13">馃洅 鍦ㄧ嚎璐拱</text>
  
  <!-- Active menu item -->
  <rect x="12" y="158" width="196" height="36" rx="8" fill="#2563eb"/>
  <text x="55" y="181" fill="white" font-size="13" font-weight="600">馃搵 鎴戠殑璁㈠崟</text>
  
  <text x="55" y="215" class="gray-text" font-size="13">馃寪 IP 璧勬簮绠＄悊</text>
  <text x="55" y="245" class="gray-text" font-size="13">馃敡 璺敱閰嶇疆</text>
  <text x="55" y="275" class="gray-text" font-size="13">馃挵 璐﹀崟涓績</text>
  <text x="55" y="305" class="gray-text" font-size="13">馃摠 绔欏唴娑堟伅</text>
  <text x="55" y="335" class="gray-text" font-size="13">馃懃 鎴戠殑閭€璇?/text>
  <text x="55" y="365" class="gray-text" font-size="13">馃帿 浼樻儬鍒?/text>
  <text x="55" y="395" class="gray-text" font-size="13">馃摑 鍞悗鍙嶉</text>
  <text x="55" y="425" class="gray-text" font-size="13">鈿欙笍 绯荤粺璁剧疆</text>
  
  <!-- User info at bottom -->
  <circle cx="42" cy="720" r="16" fill="#e5e7eb"/>
  <text x="68" y="716" class="dark-text" font-size="13" font-weight="600">Alex User</text>
  <text x="68" y="732" class="gray-text" font-size="11">Pro Plan</text>
  
  <!-- Top bar -->
  <rect x="220" y="0" width="980" height="56" fill="white"/>
  <rect x="220" y="56" width="980" height="1" fill="#e5e7eb"/>
  <text x="260" y="33" class="gray-text" font-size="12">馃敆 閭€璇烽摼鎺? http://localhost:888...</text>
  <text x="560" y="33" class="gray-text" font-size="12">璐︽埛浣欓</text>
  <text x="640" y="33" class="dark-text" font-size="14" font-weight="bold">$ 87.50</text>
  <rect x="690" y="18" width="42" height="24" rx="4" fill="#16a34a"/>
  <text x="711" y="35" fill="white" font-size="11" font-weight="600" text-anchor="middle">鍏呭€?/text>
  
  <!-- Main content area -->
  <text x="260" y="90" class="gray-text" font-size="13">鈫?杩斿洖璁㈠崟鍒楄〃</text>
  
  <!-- Order card -->
  <rect x="240" y="110" width="940" height="180" rx="12" fill="white" stroke="#e5e7eb"/>
  
  <!-- Order header -->
  <text x="270" y="150" class="dark-text" font-size="20" font-weight="bold">璁㈠崟 #ORD-20231025-8823</text>
  <rect x="540" y="133" width="72" height="24" rx="12" class="green-badge"/>
  <text x="576" y="150" class="green-text" font-size="11" font-weight="600" text-anchor="middle">鈼?姝ｅ父杩愯</text>
  
  <!-- Tags -->
  <rect x="270" y="162" width="90" height="24" rx="12" class="tag-bg"/>
  <text x="315" y="178" class="gray-text" font-size="11" text-anchor="middle">鈼?闈欐€佷綇瀹?ISP</text>
  <rect x="370" y="162" width="200" height="24" rx="12" class="tag-bg"/>
  <text x="470" y="178" class="gray-text" font-size="11" text-anchor="middle">馃寪 US - United States (Optimized)</text>
  
  <!-- Batch extract button - HIGHLIGHTED -->
  <rect x="830" y="130" width="150" height="42" rx="8" class="blue-btn"/>
  <text x="905" y="156" fill="white" font-size="13" font-weight="bold" text-anchor="middle">鈿?鎵归噺鎻愬彇浠ｇ悊</text>
  
  <!-- Red highlight box around button -->
  <rect x="822" y="122" width="166" height="58" rx="10" stroke="#ef4444" stroke-width="3" fill="none"/>
  
  <!-- Red arrow pointing to button -->
  <line x1="1050" y1="80" x2="995" y2="125" stroke="#ef4444" stroke-width="3"/>
  <polygon points="995,125 1005,115 1000,128" fill="#ef4444"/>
  
  <!-- Order info row -->
  <text x="270" y="230" class="gray-text" font-size="11">鈫?甯﹀</text>
  <text x="270" y="248" class="dark-text" font-size="13" font-weight="600">Unlimited / 1Gbps</text>
  
  <text x="440" y="230" class="gray-text" font-size="11">馃搮 鍒版湡</text>
  <text x="440" y="248" class="dark-text" font-size="13" font-weight="600">2025-12-31</text>
  
  <text x="590" y="230" class="gray-text" font-size="11"># 鏁伴噺</text>
  <text x="590" y="248" class="dark-text" font-size="13" font-weight="600">25 IPs</text>
  
  <text x="700" y="230" class="gray-text" font-size="11">馃彿 鍦烘櫙</text>
  <rect x="700" y="235" width="80" height="20" rx="4" class="tag-bg"/>
  <text x="740" y="250" class="gray-text" font-size="10" text-anchor="middle">E-commerce</text>
  <rect x="785" y="235" width="75" height="20" rx="4" class="tag-bg"/>
  <text x="822" y="250" class="gray-text" font-size="10" text-anchor="middle">Social Media</text>
  
  <text x="900" y="230" class="gray-text" font-size="11">馃攲 鍗忚</text>
  <rect x="900" y="235" width="45" height="20" rx="4" fill="#dbeafe"/>
  <text x="922" y="250" class="blue-text" font-size="10" font-weight="600" text-anchor="middle">HTTP</text>
  <rect x="950" y="235" width="55" height="20" rx="4" class="tag-bg"/>
  <text x="977" y="250" class="gray-text" font-size="10" text-anchor="middle">SOCKS5</text>
  <rect x="1010" y="235" width="45" height="20" rx="4" class="tag-bg"/>
  <text x="1032" y="250" class="gray-text" font-size="10" text-anchor="middle">VLESS</text>
  
  <!-- Resource section -->
  <text x="270" y="320" class="dark-text" font-size="15" font-weight="bold">鈿?璧勬簮閰嶇疆涓庣鐞?/text>
  
  <!-- Traffic card -->
  <rect x="240" y="340" width="300" height="160" rx="10" fill="white" stroke="#e5e7eb"/>
  <text x="270" y="370" class="dark-text" font-size="13" font-weight="600">馃摱 娴侀噺涓庡甫瀹?/text>
  <text x="270" y="400" class="gray-text" font-size="12">宸茬敤娴侀噺  124.5 GB / 1000 GB</text>
  <rect x="270" y="410" width="240" height="6" rx="3" fill="#e5e7eb"/>
  <rect x="270" y="410" width="30" height="6" rx="3" fill="#16a34a"/>
  <rect x="270" y="440" width="110" height="30" rx="6" fill="white" stroke="#e5e7eb"/>
  <text x="325" y="460" class="gray-text" font-size="11" text-anchor="middle">+ 璐拱娴侀噺</text>
  <rect x="390" y="440" width="110" height="30" rx="6" fill="white" stroke="#e5e7eb"/>
  <text x="445" y="460" class="gray-text" font-size="11" text-anchor="middle">鉁?鍗囩骇甯﹀</text>
  
  <!-- Protocol config card -->
  <rect x="560" y="340" width="300" height="160" rx="10" fill="white" stroke="#e5e7eb"/>
  <text x="590" y="370" class="dark-text" font-size="13" font-weight="600">馃攲 鍗忚閰嶇疆</text>
  <text x="810" y="370" class="green-text" font-size="10">杩愯涓?/text>
  <text x="590" y="405" class="dark-text" font-size="12">HTTP / HTTPS</text>
  <rect x="780" y="392" width="40" height="20" rx="10" fill="#2563eb"/>
  <circle cx="808" cy="402" r="8" fill="white"/>
  <text x="590" y="440" class="dark-text" font-size="12">SOCKS5</text>
  <rect x="780" y="427" width="40" height="20" rx="10" fill="#2563eb"/>
  <circle cx="808" cy="437" r="8" fill="white"/>
  
  <!-- Plan card -->
  <rect x="880" y="340" width="300" height="160" rx="10" fill="white" stroke="#e5e7eb"/>
  <text x="910" y="370" class="dark-text" font-size="13" font-weight="600">馃摝 濂楅涓庤喘涔板崗璁?/text>
  <text x="910" y="400" class="gray-text" font-size="11">褰撳墠濂楅</text>
  <text x="1100" y="400" class="dark-text" font-size="11" font-weight="600">楂樼骇浼佷笟鐗?(Premium)</text>
  <text x="910" y="425" class="gray-text" font-size="11">璁¤垂鍛ㄦ湡</text>
  <text x="1100" y="425" class="blue-text" font-size="11" font-weight="600">瀛ｈ垂 (Quarterly)</text>
</svg>
